<svg id="ProPublica-monogram" data-name="ProPublica-monogram" xmlns="http://www.w3.org/2000/svg" viewBox="0 0 300 300"><defs><style>.cls-1{fill:#304154;}</style></defs><title>ProPublica monogram</title><path class="cls-1" d="M265.58,53.93,264,59.62l24.93,45.8,4.61,1.9,6.5-2.17V300H203.79c27.64-29.81,44.72-69.1,44.72-112.47a162.43,162.43,0,0,0-13.55-65c13.55-10,17.61-12.74,31.17-19.78l6.77-.81.54-1.62L260.16,75.34H258l-3.52,5.15c-11.65,7.59-18.7,9.22-34.15,15.18a165.4,165.4,0,0,0-138.48-74A159.49,159.49,0,0,0,0,43.63V0H300V35.23ZM229.27,187.8A150.14,150.14,0,0,1,178.59,300H0V64A149,149,0,0,1,81.84,39.57C162.87,39.57,229.27,106.23,229.27,187.8ZM174.8,148.24c0-32.52-23.85-48-71-48H28.73v14.63l16.8,3.79V248.78l-16.8,3.79v14.91h82.66V252.57l-28.73-3.79V200.54h20.6C149.05,200.54,174.8,182.11,174.8,148.24Zm-39,1.08c0,20.6-11.11,33.33-29,33.33H82.66V117.89h25.2C125.47,117.89,135.77,129.27,135.77,149.32Z"/></svg>